<svg width="823" height="656" viewBox="0 0 823 656" fill="none" xmlns="http://www.w3.org/2000/svg">
<g clip-path="url(#clip0_40_139)">
<g filter="url(#filter0_d_40_139)">
<path d="M-265.763 550.202L-352.313 -32.831L-315.659 -205.321L733.207 -438.38L816.612 -99.8475C763.079 42.4481 600.656 328.867 379.226 336.175C157.797 343.484 4.64389 561.633 -44.2539 669.793L-265.763 550.202Z" fill="#558702"/>
</g>
<g filter="url(#filter1_d_40_139)">
<path d="M-255.582 495.264L-337.296 -55.1927L-302.691 -218.044L687.571 -438.082L766.316 -118.465C715.774 15.8803 562.426 286.295 353.368 293.196C144.311 300.096 -0.28433 506.056 -46.45 608.173L-255.582 495.264Z" fill="#7CC505"/>
</g>
</g>
<defs>
<filter id="filter0_d_40_139" x="-408.312" y="-494.38" width="1288.92" height="1228.17" filterUnits="userSpaceOnUse" color-interpolation-filters="sRGB">
<feFlood flood-opacity="0" result="BackgroundImageFix"/>
<feColorMatrix in="SourceAlpha" type="matrix" values="0 0 0 0 0 0 0 0 0 0 0 0 0 0 0 0 0 0 127 0" result="hardAlpha"/>
<feOffset dx="4" dy="4"/>
<feGaussianBlur stdDeviation="30"/>
<feComposite in2="hardAlpha" operator="out"/>
<feColorMatrix type="matrix" values="0 0 0 0 0 0 0 0 0 0 0 0 0 0 0 0 0 0 0.45 0"/>
<feBlend mode="normal" in2="BackgroundImageFix" result="effect1_dropShadow_40_139"/>
<feBlend mode="normal" in="SourceGraphic" in2="effect1_dropShadow_40_139" result="shape"/>
</filter>
<filter id="filter1_d_40_139" x="-393.296" y="-494.082" width="1223.61" height="1166.25" filterUnits="userSpaceOnUse" color-interpolation-filters="sRGB">
<feFlood flood-opacity="0" result="BackgroundImageFix"/>
<feColorMatrix in="SourceAlpha" type="matrix" values="0 0 0 0 0 0 0 0 0 0 0 0 0 0 0 0 0 0 127 0" result="hardAlpha"/>
<feOffset dx="4" dy="4"/>
<feGaussianBlur stdDeviation="30"/>
<feComposite in2="hardAlpha" operator="out"/>
<feColorMatrix type="matrix" values="0 0 0 0 0 0 0 0 0 0 0 0 0 0 0 0 0 0 0.45 0"/>
<feBlend mode="normal" in2="BackgroundImageFix" result="effect1_dropShadow_40_139"/>
<feBlend mode="normal" in="SourceGraphic" in2="effect1_dropShadow_40_139" result="shape"/>
</filter>
<clipPath id="clip0_40_139">
<rect width="823" height="656" fill="white"/>
</clipPath>
</defs>
</svg>
