<svg width="51" height="51" viewBox="0 0 51 51" fill="none" xmlns="http://www.w3.org/2000/svg">
<path d="M42.8804 8.11942L39.4141 11.5857C42.9541 15.1503 45.1666 20.0669 45.1666 25.4998C45.1666 36.3657 36.3658 45.1665 25.5 45.1665C14.6341 45.1665 5.83329 36.3657 5.83329 25.4998C5.83329 15.4698 13.3312 7.20984 23.0416 6.00525V10.9711C16.06 12.1511 10.75 18.1986 10.75 25.4998C10.75 33.6369 17.3629 40.2498 25.5 40.2498C33.637 40.2498 40.25 33.6369 40.25 25.4998C40.25 21.419 38.6029 17.7315 35.9233 15.0765L32.457 18.5428C34.227 20.3373 35.3333 22.7957 35.3333 25.4998C35.3333 30.9328 30.9329 35.3332 25.5 35.3332C20.067 35.3332 15.6666 30.9328 15.6666 25.4998C15.6666 20.9273 18.8133 17.1169 23.0416 16.0107V21.2715C21.5666 22.1319 20.5833 23.6807 20.5833 25.4998C20.5833 28.204 22.7958 30.4165 25.5 30.4165C28.2041 30.4165 30.4166 28.204 30.4166 25.4998C30.4166 23.6807 29.4333 22.1073 27.9583 21.2715V0.916504H25.5C11.93 0.916504 0.916626 11.9298 0.916626 25.4998C0.916626 39.0698 11.93 50.0832 25.5 50.0832C39.07 50.0832 50.0833 39.0698 50.0833 25.4998C50.0833 18.7148 47.33 12.569 42.8804 8.11942Z" fill="white"/>
</svg>
